<?xml version="1.0" encoding="utf-8"?>
<!-- Generator: Adobe Illustrator 26.3.1, SVG Export Plug-In . SVG Version: 6.00 Build 0)  -->
<svg version="1.1" id="Layer_1" xmlns="http://www.w3.org/2000/svg" xmlns:xlink="http://www.w3.org/1999/xlink" x="0px" y="0px"
	 viewBox="0 0 959.8 540" style="enable-background:new 0 0 959.8 540;" xml:space="preserve">
<style type="text/css">
	.st0{fill:#1C3F52;}
	.st1{font-family:'ArialRoundedMTBold';}
	.st2{font-size:55.1214px;}
	.st3{fill:#1A3C55;}
	.st4{fill:none;stroke:#1A3C55;stroke-width:3.5104;stroke-linecap:round;stroke-miterlimit:10;}
	.st5{fill:#FAFDFF;}
	.st6{fill:none;stroke:#FAFDFF;stroke-width:3.5104;stroke-linecap:round;stroke-miterlimit:10;}
	.st7{fill:#1A3C55;stroke:#010101;stroke-width:3.5104;stroke-miterlimit:10;}
	.st8{fill:none;stroke:#010101;stroke-width:3;stroke-linejoin:round;stroke-miterlimit:10;}
</style>
<g>
	<text transform="matrix(1 0 0 1 367.1523 354.7891)" class="st0 st1 st2">Pioneer</text>
	<g>
		<path class="st3" d="M377.6,267.8c-0.7,1.2-0.2,2.2,1.2,2.2h184.3c1.4,0,1.9-0.9,1.1-2.1l-35-51c-0.8-1.1-2.1-1.2-2.9,0
			l-13.3,18.6c-0.8,1.1-2.1,1.1-2.8-0.1l-37.4-60.6c-0.7-1.2-1.9-1.2-2.5,0.1l-19.2,35.6c-0.7,1.2-1.9,1.3-2.8,0.2l-9.8-12.3
			c-0.9-1.1-2.3-1.1-3.1,0l-10,13.3c-0.8,1.1-2.3,1.2-3.3,0.2l-5.1-5.1c-1-1-2.4-0.8-3.1,0.4L377.6,267.8z"/>
	</g>
	<g>
		<g>
			<line class="st3" x1="417.9" y1="274.6" x2="417.9" y2="269.2"/>
			<line class="st4" x1="417.9" y1="274.6" x2="417.9" y2="269.2"/>
		</g>
		<g>
			<g>
				<line class="st5" x1="407.9" y1="269.7" x2="407.9" y2="257.3"/>
				<line class="st6" x1="407.9" y1="269.7" x2="407.9" y2="257.3"/>
			</g>
			<g>
				<line class="st5" x1="431.7" y1="269.7" x2="431.7" y2="244.3"/>
				<line class="st6" x1="431.7" y1="269.7" x2="431.7" y2="244.3"/>
			</g>
			<g>
				<line class="st5" x1="443.6" y1="269.7" x2="443.6" y2="265.9"/>
				<line class="st6" x1="443.6" y1="269.7" x2="443.6" y2="265.9"/>
			</g>
			<g>
				<line class="st5" x1="453.4" y1="269.7" x2="453.4" y2="250.8"/>
				<line class="st6" x1="453.4" y1="269.7" x2="453.4" y2="250.8"/>
			</g>
			<g>
				<line class="st5" x1="464.2" y1="269.7" x2="464.2" y2="230.2"/>
				<line class="st6" x1="464.2" y1="269.7" x2="464.2" y2="230.2"/>
			</g>
			<g>
				<line class="st5" x1="475" y1="269.7" x2="475" y2="255.1"/>
				<line class="st6" x1="475" y1="269.7" x2="475" y2="255.1"/>
			</g>
			<g>
				<line class="st5" x1="484.8" y1="269.7" x2="484.8" y2="262.7"/>
				<line class="st6" x1="484.8" y1="269.7" x2="484.8" y2="262.7"/>
			</g>
			<g>
				<line class="st5" x1="504.2" y1="269.7" x2="504.2" y2="256.2"/>
				<line class="st6" x1="504.2" y1="269.7" x2="504.2" y2="256.2"/>
			</g>
			<g>
				<line class="st5" x1="519.4" y1="269.7" x2="519.4" y2="254"/>
				<line class="st6" x1="519.4" y1="269.7" x2="519.4" y2="254"/>
			</g>
			<g>
				<line class="st5" x1="417.7" y1="264.3" x2="417.7" y2="269.7"/>
				<line class="st6" x1="417.7" y1="264.3" x2="417.7" y2="269.7"/>
			</g>
		</g>
		<g>
			<g>
				<line class="st3" x1="407.9" y1="269.7" x2="407.9" y2="282.2"/>
				<line class="st4" x1="407.9" y1="269.7" x2="407.9" y2="282.2"/>
			</g>
			<g>
				<line class="st3" x1="431.7" y1="269.7" x2="431.7" y2="295.2"/>
				<line class="st4" x1="431.7" y1="269.7" x2="431.7" y2="295.2"/>
			</g>
			<g>
				<line class="st3" x1="443.6" y1="269.7" x2="443.6" y2="273.5"/>
				<line class="st4" x1="443.6" y1="269.7" x2="443.6" y2="273.5"/>
			</g>
			<g>
				<line class="st3" x1="453.4" y1="269.7" x2="453.4" y2="288.7"/>
				<line class="st4" x1="453.4" y1="269.7" x2="453.4" y2="288.7"/>
			</g>
			<g>
				<line class="st3" x1="464.2" y1="269.7" x2="464.2" y2="309.2"/>
				<line class="st4" x1="464.2" y1="269.7" x2="464.2" y2="309.2"/>
			</g>
			<g>
				<line class="st3" x1="475" y1="269.7" x2="475" y2="284.3"/>
				<line class="st4" x1="475" y1="269.7" x2="475" y2="284.3"/>
			</g>
			<g>
				<line class="st3" x1="484.8" y1="269.7" x2="484.8" y2="276.8"/>
				<line class="st4" x1="484.8" y1="269.7" x2="484.8" y2="276.8"/>
			</g>
			<g>
				<line class="st3" x1="504.2" y1="269.7" x2="504.2" y2="283.3"/>
				<line class="st4" x1="504.2" y1="269.7" x2="504.2" y2="283.3"/>
			</g>
			<g>
				<line class="st3" x1="519.4" y1="269.7" x2="519.4" y2="285.4"/>
				<line class="st4" x1="519.4" y1="269.7" x2="519.4" y2="285.4"/>
			</g>
		</g>
		<line class="st7" x1="359.6" y1="269.7" x2="583.6" y2="269.7"/>
	</g>
	<rect x="359.1" y="162.6" class="st8" width="224" height="214.3"/>
</g>
</svg>
