<?xml version="1.0" encoding="utf-8"?>
<!-- Generator: Adobe Illustrator 28.0.0, SVG Export Plug-In . SVG Version: 6.00 Build 0)  -->
<svg version="1.1" id="Layer_1" xmlns="http://www.w3.org/2000/svg" xmlns:xlink="http://www.w3.org/1999/xlink" x="0px" y="0px"
 viewBox="0 0 242.77 204.31" enable-background="new 0 0 242.77 204.31" xml:space="preserve">
<g>
<path fill="#193C55" d="M46.16,174.82h-6.38v9.73c0,1.39-0.33,2.45-0.98,3.16s-1.48,1.08-2.48,1.08c-1.05,0-1.89-0.36-2.53-1.07
s-0.96-1.75-0.96-3.13v-26.48c0-1.53,0.35-2.62,1.05-3.28s1.82-0.98,3.35-0.98h8.93c2.64,0,4.67,0.2,6.09,0.61
c1.41,0.39,2.62,1.04,3.64,1.95s1.8,2.02,2.33,3.33s0.8,2.79,0.8,4.43c0,3.5-1.08,6.15-3.23,7.96S50.42,174.82,46.16,174.82z
 M44.47,159.07h-4.69v10.5h4.69c1.64,0,3.01-0.17,4.11-0.52s1.94-0.91,2.52-1.69s0.87-1.8,0.87-3.07c0-1.52-0.45-2.75-1.34-3.7
C49.63,159.58,47.58,159.07,44.47,159.07z"/>
<path fill="#193C55" d="M67.63,159.8c-0.89,0-1.65-0.27-2.29-0.82s-0.95-1.32-0.95-2.32c0-0.91,0.32-1.65,0.97-2.24
s1.4-0.88,2.26-0.88c0.83,0,1.56,0.27,2.2,0.8s0.96,1.3,0.96,2.32c0,0.98-0.31,1.75-0.94,2.31S68.49,159.8,67.63,159.8z
 M70.79,166.41v18.49c0,1.28-0.3,2.25-0.91,2.91s-1.38,0.98-2.32,0.98s-1.7-0.34-2.29-1.01s-0.88-1.63-0.88-2.88v-18.3
c0-1.27,0.29-2.22,0.88-2.86s1.35-0.96,2.29-0.96s1.71,0.32,2.32,0.96S70.79,165.27,70.79,166.41z"/>
<path fill="#193C55" d="M101.35,175.78c0,1.91-0.3,3.66-0.89,5.27s-1.45,2.99-2.58,4.15s-2.47,2.04-4.03,2.66s-3.32,0.93-5.27,0.93
c-1.94,0-3.68-0.31-5.23-0.94s-2.89-1.52-4.02-2.68s-1.99-2.54-2.58-4.12s-0.88-3.34-0.88-5.26c0-1.94,0.3-3.71,0.89-5.32
s1.45-2.98,2.55-4.12s2.45-2.02,4.03-2.64s3.32-0.93,5.23-0.93c1.94,0,3.7,0.31,5.27,0.94s2.93,1.52,4.05,2.67s1.98,2.53,2.57,4.12
S101.35,173.86,101.35,175.78z M94.93,175.78c0-2.61-0.57-4.64-1.72-6.09s-2.69-2.18-4.63-2.18c-1.25,0-2.35,0.32-3.3,0.97
s-1.69,1.61-2.2,2.87s-0.77,2.74-0.77,4.43c0,1.67,0.25,3.13,0.76,4.38s1.23,2.21,2.18,2.87s2.06,1,3.34,1
c1.94,0,3.48-0.73,4.63-2.19S94.93,178.36,94.93,175.78z"/>
<path fill="#193C55" d="M112.21,166.32v0.77c1.12-1.48,2.36-2.57,3.69-3.27s2.87-1.04,4.61-1.04c1.69,0,3.2,0.37,4.52,1.1
s2.32,1.77,2.98,3.12c0.42,0.78,0.7,1.62,0.82,2.53s0.19,2.06,0.19,3.47v11.91c0,1.28-0.29,2.25-0.88,2.91s-1.35,0.98-2.29,0.98
c-0.95,0-1.73-0.34-2.32-1.01s-0.89-1.63-0.89-2.88v-10.66c0-2.11-0.29-3.72-0.88-4.84s-1.75-1.68-3.5-1.68
c-1.14,0-2.18,0.34-3.12,1.02s-1.62,1.61-2.06,2.8c-0.31,0.95-0.47,2.73-0.47,5.34v8.02c0,1.3-0.3,2.27-0.9,2.92
s-1.38,0.97-2.33,0.97c-0.92,0-1.68-0.34-2.27-1.01s-0.89-1.63-0.89-2.88v-18.49c0-1.22,0.27-2.13,0.8-2.73s1.26-0.9,2.18-0.9
c0.56,0,1.07,0.13,1.52,0.4s0.82,0.66,1.09,1.2S112.21,165.55,112.21,166.32z"/>
<path fill="#193C55" d="M153.24,177.35h-12.52c0.02,1.45,0.31,2.73,0.88,3.84s1.33,1.95,2.27,2.51s1.99,0.84,3.13,0.84
c0.77,0,1.46-0.09,2.1-0.27s1.25-0.46,1.84-0.84s1.14-0.79,1.64-1.23s1.15-1.03,1.95-1.78c0.33-0.28,0.8-0.42,1.41-0.42
c0.66,0,1.19,0.18,1.59,0.54s0.61,0.87,0.61,1.52c0,0.58-0.23,1.25-0.68,2.03s-1.14,1.52-2.05,2.23s-2.06,1.3-3.45,1.77
s-2.97,0.7-4.77,0.7c-4.11,0-7.3-1.17-9.59-3.52s-3.42-5.52-3.42-9.54c0-1.89,0.28-3.64,0.84-5.26s1.38-3,2.46-4.16
s2.41-2.04,3.98-2.66s3.33-0.93,5.25-0.93c2.5,0,4.64,0.53,6.43,1.58s3.13,2.42,4.02,4.09s1.34,3.38,1.34,5.11
c0,1.61-0.46,2.65-1.38,3.13S154.92,177.35,153.24,177.35z M140.73,173.72h11.6c-0.16-2.19-0.75-3.82-1.77-4.91
s-2.37-1.63-4.04-1.63c-1.59,0-2.9,0.55-3.93,1.65S140.95,171.57,140.73,173.72z"/>
<path fill="#193C55" d="M181.77,177.35h-12.52c0.02,1.45,0.31,2.73,0.88,3.84s1.33,1.95,2.27,2.51s1.99,0.84,3.13,0.84
c0.77,0,1.46-0.09,2.1-0.27s1.25-0.46,1.84-0.84s1.14-0.79,1.64-1.23s1.15-1.03,1.95-1.78c0.33-0.28,0.8-0.42,1.41-0.42
c0.66,0,1.19,0.18,1.59,0.54s0.61,0.87,0.61,1.52c0,0.58-0.23,1.25-0.68,2.03s-1.14,1.52-2.05,2.23s-2.06,1.3-3.45,1.77
s-2.97,0.7-4.77,0.7c-4.11,0-7.3-1.17-9.59-3.52s-3.42-5.52-3.42-9.54c0-1.89,0.28-3.64,0.84-5.26s1.38-3,2.46-4.16
s2.41-2.04,3.98-2.66s3.33-0.93,5.25-0.93c2.5,0,4.64,0.53,6.43,1.58s3.13,2.42,4.02,4.09s1.34,3.38,1.34,5.11
c0,1.61-0.46,2.65-1.38,3.13S183.44,177.35,181.77,177.35z M169.25,173.72h11.6c-0.16-2.19-0.75-3.82-1.77-4.91
s-2.37-1.63-4.04-1.63c-1.59,0-2.9,0.55-3.93,1.65S169.47,171.57,169.25,173.72z"/>
<path fill="#193C55" d="M198.78,179.56v5.34c0,1.3-0.3,2.27-0.91,2.92s-1.38,0.97-2.32,0.97c-0.92,0-1.68-0.33-2.27-0.98
s-0.89-1.62-0.89-2.91v-17.81c0-2.88,1.04-4.31,3.12-4.31c1.06,0,1.83,0.34,2.3,1.01s0.73,1.66,0.77,2.98
c0.77-1.31,1.55-2.3,2.36-2.98s1.88-1.01,3.22-1.01s2.65,0.34,3.91,1.01s1.9,1.56,1.9,2.67c0,0.78-0.27,1.43-0.81,1.93
s-1.12,0.76-1.75,0.76c-0.23,0-0.8-0.14-1.7-0.43s-1.69-0.43-2.38-0.43c-0.94,0-1.7,0.25-2.3,0.74s-1.05,1.22-1.38,2.19
s-0.55,2.12-0.68,3.46S198.78,177.64,198.78,179.56z"/>
</g>
<g>
<path fill="#193B54" d="M27.46,101.2c-0.72,1.19-0.16,2.17,1.23,2.17H213c1.39,0,1.88-0.94,1.1-2.08l-35.01-51.02
c-0.79-1.15-2.09-1.16-2.9-0.03l-13.29,18.61c-0.81,1.13-2.07,1.09-2.8-0.09L122.71,8.13c-0.73-1.18-1.87-1.15-2.53,0.07
l-19.24,35.59c-0.66,1.22-1.91,1.34-2.78,0.25l-9.83-12.28c-0.87-1.09-2.26-1.06-3.1,0.05l-9.95,13.27
c-0.83,1.11-2.32,1.22-3.3,0.23l-5.08-5.08c-0.98-0.98-2.37-0.81-3.09,0.38L27.46,101.2z"/>
</g>
<g>
<g>
<line fill="#193B54" x1="73.72" y1="108" x2="73.72" y2="102.59"/>
</g>
<path fill="#193B54" d="M73.72,109.76c-0.97,0-1.76-0.79-1.76-1.76v-5.41c0-0.97,0.79-1.76,1.76-1.76s1.76,0.79,1.76,1.76V108
C75.47,108.97,74.68,109.76,73.72,109.76z"/>
</g>
<g>
<g>
<g>
<line fill="#F9FCFF" x1="63.76" y1="103.15" x2="63.76" y2="90.7"/>
</g>
<path fill="#F9FCFF" d="M63.76,104.9c-0.97,0-1.76-0.79-1.76-1.76V90.7c0-0.97,0.79-1.76,1.76-1.76c0.97,0,1.76,0.79,1.76,1.76
v12.44C65.51,104.12,64.73,104.9,63.76,104.9z"/>
</g>
<g>
<g>
<line fill="#F9FCFF" x1="87.56" y1="103.15" x2="87.56" y2="77.72"/>
</g>
<path fill="#F9FCFF" d="M87.56,104.9c-0.97,0-1.76-0.79-1.76-1.76V77.72c0-0.97,0.79-1.76,1.76-1.76s1.76,0.79,1.76,1.76v25.43
C89.32,104.12,88.53,104.9,87.56,104.9z"/>
</g>
<g>
<g>
<line fill="#F9FCFF" x1="99.47" y1="103.15" x2="99.47" y2="99.36"/>
</g>
<path fill="#F9FCFF" d="M99.47,104.9c-0.97,0-1.76-0.79-1.76-1.76v-3.79c0-0.97,0.79-1.76,1.76-1.76s1.76,0.79,1.76,1.76v3.79
C101.22,104.12,100.44,104.9,99.47,104.9z"/>
</g>
<g>
<g>
<line fill="#F9FCFF" x1="109.21" y1="103.15" x2="109.21" y2="84.21"/>
</g>
<path fill="#F9FCFF" d="M109.21,104.9c-0.97,0-1.76-0.79-1.76-1.76V84.21c0-0.97,0.79-1.76,1.76-1.76s1.76,0.79,1.76,1.76v18.94
C110.96,104.12,110.17,104.9,109.21,104.9z"/>
</g>
<g>
<g>
<line fill="#F9FCFF" x1="120.03" y1="103.15" x2="120.03" y2="63.65"/>
</g>
<path fill="#F9FCFF" d="M120.03,104.9c-0.97,0-1.76-0.79-1.76-1.76v-39.5c0-0.97,0.79-1.76,1.76-1.76s1.76,0.79,1.76,1.76v39.5
C121.78,104.12,121,104.9,120.03,104.9z"/>
</g>
<g>
<g>
<line fill="#F9FCFF" x1="130.85" y1="103.15" x2="130.85" y2="88.54"/>
</g>
<path fill="#F9FCFF" d="M130.85,104.9c-0.97,0-1.76-0.79-1.76-1.76V88.54c0-0.97,0.79-1.76,1.76-1.76c0.97,0,1.75,0.79,1.75,1.76
v14.61C132.6,104.12,131.82,104.9,130.85,104.9z"/>
</g>
<g>
<g>
<line fill="#F9FCFF" x1="140.59" y1="103.15" x2="140.59" y2="96.11"/>
</g>
<path fill="#F9FCFF" d="M140.59,104.9c-0.97,0-1.75-0.79-1.75-1.76v-7.03c0-0.97,0.79-1.76,1.75-1.76s1.75,0.79,1.75,1.76v7.03
C142.34,104.12,141.56,104.9,140.59,104.9z"/>
</g>
<g>
<g>
<line fill="#F9FCFF" x1="160.06" y1="103.15" x2="160.06" y2="89.62"/>
</g>
<path fill="#F9FCFF" d="M160.06,104.9c-0.97,0-1.75-0.79-1.75-1.76V89.62c0-0.97,0.79-1.76,1.75-1.76s1.75,0.79,1.75,1.76v13.53
C161.82,104.12,161.03,104.9,160.06,104.9z"/>
</g>
<g>
<g>
<line fill="#F9FCFF" x1="175.21" y1="103.15" x2="175.21" y2="87.46"/>
</g>
<path fill="#F9FCFF" d="M175.21,104.9c-0.97,0-1.75-0.79-1.75-1.76V87.46c0-0.97,0.79-1.76,1.75-1.76s1.75,0.79,1.75,1.76v15.69
C176.97,104.12,176.18,104.9,175.21,104.9z"/>
</g>
<g>
<g>
<line fill="#F9FCFF" x1="73.5" y1="97.74" x2="73.5" y2="103.15"/>
</g>
<path fill="#F9FCFF" d="M73.5,104.9c-0.97,0-1.76-0.79-1.76-1.76v-5.41c0-0.97,0.79-1.76,1.76-1.76s1.76,0.79,1.76,1.76v5.41
C75.25,104.12,74.47,104.9,73.5,104.9z"/>
</g>
</g>
<g>
<g>
<g>
<line fill="#193B54" x1="63.76" y1="103.15" x2="63.76" y2="115.59"/>
</g>
<path fill="#193B54" d="M63.76,117.35c-0.97,0-1.76-0.79-1.76-1.76v-12.44c0-0.97,0.79-1.76,1.76-1.76c0.97,0,1.76,0.79,1.76,1.76
v12.44C65.51,116.56,64.73,117.35,63.76,117.35z"/>
</g>
<g>
<g>
<line fill="#193B54" x1="87.56" y1="103.15" x2="87.56" y2="128.58"/>
</g>
<path fill="#193B54" d="M87.56,130.33c-0.97,0-1.76-0.79-1.76-1.76v-25.43c0-0.97,0.79-1.76,1.76-1.76s1.76,0.79,1.76,1.76v25.43
C89.32,129.54,88.53,130.33,87.56,130.33z"/>
</g>
<g>
<g>
<line fill="#193B54" x1="99.47" y1="103.15" x2="99.47" y2="106.93"/>
</g>
<path fill="#193B54" d="M99.47,108.69c-0.97,0-1.76-0.79-1.76-1.76v-3.79c0-0.97,0.79-1.76,1.76-1.76s1.76,0.79,1.76,1.76v3.79
C101.22,107.9,100.44,108.69,99.47,108.69z"/>
</g>
<g>
<g>
<line fill="#193B54" x1="109.21" y1="103.15" x2="109.21" y2="122.08"/>
</g>
<path fill="#193B54" d="M109.21,123.84c-0.97,0-1.76-0.79-1.76-1.76v-18.94c0-0.97,0.79-1.76,1.76-1.76s1.76,0.79,1.76,1.76v18.94
C110.96,123.05,110.17,123.84,109.21,123.84z"/>
</g>
<g>
<g>
<line fill="#193B54" x1="120.03" y1="103.15" x2="120.03" y2="142.64"/>
</g>
<path fill="#193B54" d="M120.03,144.4c-0.97,0-1.76-0.79-1.76-1.76v-39.5c0-0.97,0.79-1.76,1.76-1.76s1.76,0.79,1.76,1.76v39.5
C121.78,143.61,121,144.4,120.03,144.4z"/>
</g>
<g>
<g>
<line fill="#193B54" x1="130.85" y1="103.15" x2="130.85" y2="117.75"/>
</g>
<path fill="#193B54" d="M130.85,119.51c-0.97,0-1.76-0.79-1.76-1.76v-14.61c0-0.97,0.79-1.76,1.76-1.76
c0.97,0,1.75,0.79,1.75,1.76v14.61C132.6,118.72,131.82,119.51,130.85,119.51z"/>
</g>
<g>
<g>
<line fill="#193B54" x1="140.59" y1="103.15" x2="140.59" y2="110.18"/>
</g>
<path fill="#193B54" d="M140.59,111.94c-0.97,0-1.75-0.79-1.75-1.76v-7.03c0-0.97,0.79-1.76,1.75-1.76s1.75,0.79,1.75,1.76v7.03
C142.34,111.15,141.56,111.94,140.59,111.94z"/>
</g>
<g>
<g>
<line fill="#193B54" x1="160.06" y1="103.15" x2="160.06" y2="116.67"/>
</g>
<path fill="#193B54" d="M160.06,118.43c-0.97,0-1.75-0.79-1.75-1.76v-13.53c0-0.97,0.79-1.76,1.75-1.76s1.75,0.79,1.75,1.76v13.53
C161.82,117.64,161.03,118.43,160.06,118.43z"/>
</g>
<g>
<g>
<line fill="#193B54" x1="175.21" y1="103.15" x2="175.21" y2="118.84"/>
</g>
<path fill="#193B54" d="M175.21,120.59c-0.97,0-1.75-0.79-1.75-1.76v-15.69c0-0.97,0.79-1.76,1.75-1.76s1.75,0.79,1.75,1.76v15.69
C176.97,119.81,176.18,120.59,175.21,120.59z"/>
</g>
</g>
<g>
<line fill="#193B54" x1="9.39" y1="103.14" x2="233.38" y2="103.14"/>
<path fill="#193C55" d="M233.38,104.89H9.39c-0.97,0-1.76-0.79-1.76-1.76s0.79-1.76,1.76-1.76h223.99c0.97,0,1.75,0.79,1.75,1.76
S234.35,104.89,233.38,104.89z"/>
</g>
<g>
</g>
<g>
</g>
<g>
</g>
<g>
</g>
<g>
</g>
<g>
</g>
</svg>
