<?xml version="1.0" encoding="utf-8"?>
<!-- Generator: Adobe Illustrator 26.3.1, SVG Export Plug-In . SVG Version: 6.00 Build 0)  -->
<svg version="1.1" id="Layer_1" xmlns="http://www.w3.org/2000/svg" xmlns:xlink="http://www.w3.org/1999/xlink" x="0px" y="0px"
	 viewBox="0 0 227 217.3" style="enable-background:new 0 0 227 217.3;" xml:space="preserve">
<style type="text/css">
	.st0{fill:#1C3F52;}
	.st1{font-family:'ArialRoundedMTBold';}
	.st2{font-size:55.1214px;}
	.st3{fill:#1A3C55;}
	.st4{fill:none;stroke:#1A3C55;stroke-width:3.5104;stroke-linecap:round;stroke-miterlimit:10;}
	.st5{fill:#FAFDFF;}
	.st6{fill:none;stroke:#FAFDFF;stroke-width:3.5104;stroke-linecap:round;stroke-miterlimit:10;}
	.st7{fill:#1A3C55;stroke:#010101;stroke-width:3.5104;stroke-miterlimit:10;}
	.st8{fill:none;stroke:#010101;stroke-width:3;stroke-linejoin:round;stroke-miterlimit:10;}
</style>
<g>
	<text transform="matrix(1 0 0 1 9.524 193.6845)" class="st0 st1 st2">Pioneer</text>
	<g>
		<path class="st3" d="M20,106.7c-0.7,1.2-0.2,2.2,1.2,2.2h184.3c1.4,0,1.9-0.9,1.1-2.1l-35-51c-0.8-1.1-2.1-1.2-2.9,0l-13.3,18.6
			c-0.8,1.1-2.1,1.1-2.8-0.1l-37.4-60.6c-0.7-1.2-1.9-1.2-2.5,0.1L93.5,49.3c-0.7,1.2-1.9,1.3-2.8,0.2l-9.8-12.3
			c-0.9-1.1-2.3-1.1-3.1,0l-10,13.3c-0.8,1.1-2.3,1.2-3.3,0.2l-5.1-5.1c-1-1-2.4-0.8-3.1,0.4L20,106.7z"/>
	</g>
	<g>
		<g>
			<line class="st3" x1="60.3" y1="113.5" x2="60.3" y2="108.1"/>
			<line class="st4" x1="60.3" y1="113.5" x2="60.3" y2="108.1"/>
		</g>
		<g>
			<g>
				<line class="st5" x1="50.3" y1="108.6" x2="50.3" y2="96.2"/>
				<line class="st6" x1="50.3" y1="108.6" x2="50.3" y2="96.2"/>
			</g>
			<g>
				<line class="st5" x1="74.1" y1="108.6" x2="74.1" y2="83.2"/>
				<line class="st6" x1="74.1" y1="108.6" x2="74.1" y2="83.2"/>
			</g>
			<g>
				<line class="st5" x1="86" y1="108.6" x2="86" y2="104.8"/>
				<line class="st6" x1="86" y1="108.6" x2="86" y2="104.8"/>
			</g>
			<g>
				<line class="st5" x1="95.7" y1="108.6" x2="95.7" y2="89.7"/>
				<line class="st6" x1="95.7" y1="108.6" x2="95.7" y2="89.7"/>
			</g>
			<g>
				<line class="st5" x1="106.6" y1="108.6" x2="106.6" y2="69.1"/>
				<line class="st6" x1="106.6" y1="108.6" x2="106.6" y2="69.1"/>
			</g>
			<g>
				<line class="st5" x1="117.4" y1="108.6" x2="117.4" y2="94"/>
				<line class="st6" x1="117.4" y1="108.6" x2="117.4" y2="94"/>
			</g>
			<g>
				<line class="st5" x1="127.1" y1="108.6" x2="127.1" y2="101.6"/>
				<line class="st6" x1="127.1" y1="108.6" x2="127.1" y2="101.6"/>
			</g>
			<g>
				<line class="st5" x1="146.6" y1="108.6" x2="146.6" y2="95.1"/>
				<line class="st6" x1="146.6" y1="108.6" x2="146.6" y2="95.1"/>
			</g>
			<g>
				<line class="st5" x1="161.8" y1="108.6" x2="161.8" y2="92.9"/>
				<line class="st6" x1="161.8" y1="108.6" x2="161.8" y2="92.9"/>
			</g>
			<g>
				<line class="st5" x1="60" y1="103.2" x2="60" y2="108.6"/>
				<line class="st6" x1="60" y1="103.2" x2="60" y2="108.6"/>
			</g>
		</g>
		<g>
			<g>
				<line class="st3" x1="50.3" y1="108.6" x2="50.3" y2="121.1"/>
				<line class="st4" x1="50.3" y1="108.6" x2="50.3" y2="121.1"/>
			</g>
			<g>
				<line class="st3" x1="74.1" y1="108.6" x2="74.1" y2="134.1"/>
				<line class="st4" x1="74.1" y1="108.6" x2="74.1" y2="134.1"/>
			</g>
			<g>
				<line class="st3" x1="86" y1="108.6" x2="86" y2="112.4"/>
				<line class="st4" x1="86" y1="108.6" x2="86" y2="112.4"/>
			</g>
			<g>
				<line class="st3" x1="95.7" y1="108.6" x2="95.7" y2="127.6"/>
				<line class="st4" x1="95.7" y1="108.6" x2="95.7" y2="127.6"/>
			</g>
			<g>
				<line class="st3" x1="106.6" y1="108.6" x2="106.6" y2="148.1"/>
				<line class="st4" x1="106.6" y1="108.6" x2="106.6" y2="148.1"/>
			</g>
			<g>
				<line class="st3" x1="117.4" y1="108.6" x2="117.4" y2="123.2"/>
				<line class="st4" x1="117.4" y1="108.6" x2="117.4" y2="123.2"/>
			</g>
			<g>
				<line class="st3" x1="127.1" y1="108.6" x2="127.1" y2="115.7"/>
				<line class="st4" x1="127.1" y1="108.6" x2="127.1" y2="115.7"/>
			</g>
			<g>
				<line class="st3" x1="146.6" y1="108.6" x2="146.6" y2="122.2"/>
				<line class="st4" x1="146.6" y1="108.6" x2="146.6" y2="122.2"/>
			</g>
			<g>
				<line class="st3" x1="161.8" y1="108.6" x2="161.8" y2="124.3"/>
				<line class="st4" x1="161.8" y1="108.6" x2="161.8" y2="124.3"/>
			</g>
		</g>
		<line class="st7" x1="1.9" y1="108.6" x2="225.9" y2="108.6"/>
	</g>
	<rect x="1.5" y="1.5" class="st8" width="224" height="214.3"/>
</g>
</svg>
